<svg width="180" height="54" viewBox="0 0 180 54" fill="none" xmlns="http://www.w3.org/2000/svg">
<path d="M89.616 22.1967C88.374 21.7188 86.7494 21.5758 84.9817 21.5758H75.1389V18.5178H92.0528V13.2622H68.2109V36.005H84.3606C86.6062 36.005 88.2779 35.814 89.5207 35.3357C92.1485 34.3325 93.9163 31.8958 93.9163 28.6947C93.9163 25.4459 92.244 23.2001 89.616 22.1967ZM86.1759 30.0803C85.7939 30.2237 85.2683 30.2713 84.5991 30.2713H75.1389V26.64H84.5991C85.3638 26.64 85.9847 26.6881 86.4628 26.9269C87.0359 27.2136 87.3228 27.7392 87.3228 28.4078C87.3228 29.0768 86.9884 29.7936 86.1759 30.0803Z" fill="#333333"/>
<path d="M113.343 13.2622H103.213L93.8965 36.005H101.732L103.022 32.7081H113.534L114.872 36.005H122.66L113.343 13.2622ZM104.742 27.6912L108.039 18.5178H108.565L111.861 27.6912H104.742Z" fill="#333333"/>
<path d="M131.574 27.5484V36.0051H124.646V13.2622H131.574V21.5759H142.707V13.2622H149.635V36.0051H142.707V27.5484H131.574Z" fill="#333333"/>
<path d="M160.602 27.4051V36.0051H153.674V13.2622H160.602V21.8149H162.513L170.874 13.2622H179.57L168.485 24.1558L180 36.0051H170.779L162.513 27.4051H160.602Z" fill="#333333"/>
<path d="M0 -0.000488281H54.9474V25.7394C54.9474 32.8236 51.1682 39.3701 45.0334 42.9125L27.4739 53.0522L9.91415 42.9125C3.77919 39.3701 6.29768e-06 32.8236 6.29768e-06 25.7394L0 -0.000488281Z" fill="#FFDD2D"/>
<path fill-rule="evenodd" clip-rule="evenodd" d="M15.1582 13.2622V21.8031C16.3261 20.4842 18.4497 19.5918 20.8777 19.5918H23.5161V29.5204C23.5161 32.1619 22.7984 34.7484 21.7335 36.0201H33.2105C32.148 34.747 31.4319 32.1637 31.4319 29.5255V19.5918H34.0705C36.4985 19.5918 38.6219 20.4842 39.7898 21.8031V13.2622H15.1582Z" fill="#333333"/>
</svg>
