<svg width="140" height="50" viewBox="0 0 140 50" fill="none" xmlns="http://www.w3.org/2000/svg">
<path fill-rule="evenodd" clip-rule="evenodd" d="M9.53001 -0.000488281L7.14602 6.52972H40.1828L42.5668 -0.000488281H9.53001ZM5.95328 9.79334L3.56929 16.3221H36.6061L38.99 9.79334H5.95328ZM2.38399 19.5872L0 26.1159H33.0368L35.4193 19.5872H2.38399Z" fill="#009FDF"/>
<mask id="mask0_1_599" style="mask-type:luminance" maskUnits="userSpaceOnUse" x="49" y="9" width="91" height="41">
<path d="M49.5645 49.9201H139.999V9.91846H49.5645V49.9201Z" fill="white"/>
</mask>
<g mask="url(#mask0_1_599)">
<path fill-rule="evenodd" clip-rule="evenodd" d="M70.2328 28.604V28.7418C71.7426 29.2959 73.1848 30.2649 73.9405 30.8872C76.275 32.8253 77.3056 35.3856 77.3056 38.7076C77.3056 44.1765 74.4212 48.1207 69.683 49.3668C68.2408 49.7817 66.731 49.921 63.9142 49.921H49.5645V9.91846H62.2677C64.8772 9.91846 66.6619 10.0562 68.2408 10.4711C72.8423 11.7172 75.8634 14.9014 75.8634 19.9524C75.8634 22.652 74.9019 24.9368 73.323 26.4585C72.6365 27.1504 71.675 27.9817 70.2328 28.604ZM57.5295 32.8253V43.3453H63.0234C64.6699 43.3453 66.1812 43.2075 67.2809 42.1688C68.379 41.1301 68.8598 39.8159 68.8598 38.0853C68.8598 36.771 68.5157 35.5249 67.8292 34.6255C66.6619 33.172 65.2197 32.8253 62.7485 32.8253H57.5295ZM57.4604 25.9043H61.9237C63.2968 25.9043 63.9834 25.9043 64.6699 25.6969C66.5252 25.1427 67.6925 23.4833 67.6925 21.1985C67.6925 18.5004 66.4561 17.3224 64.6699 16.7698C63.9142 16.5623 63.1601 16.4927 61.6488 16.4927H57.4604V25.9043ZM89.2532 49.921V16.6305H77.7863V9.91846H109.648L107.383 16.6305H97.2183V49.921H89.2532ZM112.119 49.921V9.91846H137.939L135.674 16.6305H120.017V25.4895H126.403C131.553 25.4895 134.232 26.7356 136.085 28.3269C137.528 29.573 139.999 32.3408 139.999 37.8097C139.999 43.2075 137.458 46.1827 135.33 47.7059C132.858 49.435 130.249 49.921 124.961 49.921H112.119ZM120.017 43.2075H125.992C128.257 43.2075 129.63 42.6533 130.592 41.4072C131.072 40.7849 131.759 39.6766 131.759 37.6008C131.759 35.5249 131.072 34.0714 129.699 33.0327C128.876 32.4104 127.776 32.0652 125.922 32.0652H120.017V43.2075Z" fill="#0A2973"/>
</g>
</svg>
