<svg width="180" height="30" viewBox="0 0 180 30" fill="none" xmlns="http://www.w3.org/2000/svg">
<path fill-rule="evenodd" clip-rule="evenodd" d="M-0.00012207 18.1194C-0.00012207 23.9243 3.25172 29.7778 10.5335 29.7778C17.8086 29.7778 21.0668 23.9243 21.0668 18.1194C21.0668 14.1546 19.7306 9.58905 17.5005 5.90052C15.3317 2.33935 12.7256 0.221191 10.5335 0.221191C8.33479 0.221191 5.72805 2.33935 3.57798 5.90052C1.33688 9.58905 -0.00012207 14.1546 -0.00012207 18.1194ZM74.7883 8.92997H67.4146V1.80464H90.0615V8.92997H82.6883L82.688 28.1945H74.7878L74.7883 8.92997ZM106.912 8.93007H118.499V1.80476H106.913C96.2662 1.80476 90.5821 7.10909 90.5821 14.9997C90.5821 22.8903 96.2662 28.1946 106.913 28.1946H118.499V21.0693H106.912C101.985 21.0693 98.7454 19.3044 98.7454 14.9997C98.7454 10.6948 101.985 8.93007 106.912 8.93007ZM47.133 17.5565L51.3447 1.80476H65.3049V28.1946H57.4051V6.71585L51.6621 28.1946H42.604L36.8647 6.72926V28.1946H28.9645V1.80476H42.9213L47.133 17.5565ZM132.908 9.45407H130.123V12.0355H132.908C133.614 12.0355 134.034 11.6724 134.034 11.0028V10.5247C134.034 9.83613 133.672 9.45407 132.908 9.45407ZM133.614 14.9997H126.401V1.80441H137.011V4.96005H130.123V6.68087H133.614C136.534 6.68087 137.946 8.1343 137.946 10.6967C137.946 13.3932 136.534 14.9997 133.614 14.9997ZM146.53 9.60671H143.592L145.061 4.73063L146.53 9.60671ZM152.178 14.9997L148.114 1.80476H142.58L138.516 14.9997H141.989L142.733 12.4752H147.389L148.153 14.9997H152.178ZM161.585 14.9997V9.89383H157.33V14.9997H153.513V1.80476H157.33V6.64286H161.585V1.80476H165.402V14.9997H161.585ZM172.176 6.64274H171.508V1.80464H167.691V14.9995H171.508V9.89372H172.061L175.592 14.9995H180L175.229 8.09619L179.619 1.80464H175.592L172.176 6.64274Z" fill="#EE2A23"/>
</svg>
