<svg width="180" height="64" viewBox="0 0 180 64" fill="none" xmlns="http://www.w3.org/2000/svg">
<path d="M20.3201 0.353645C24.6272 0.353645 25.9806 3.44294 27.1161 6.52739C27.593 7.8372 38.7857 38.4881 39.1222 39.4081C39.2118 39.6647 39.1513 40.086 38.7566 40.2385C38.3596 40.3886 32.5442 42.6499 32.2221 42.771C31.9001 42.8944 31.5394 42.7153 31.4232 42.3933C31.3021 42.0761 28.8883 35.3939 28.6172 34.6482H12.0279C11.7664 35.3939 9.32358 42.0906 9.21463 42.3933C9.10326 42.7007 8.75704 42.909 8.41325 42.771C8.06946 42.6354 2.23224 40.3741 1.8836 40.2385C1.54949 40.1078 1.39696 39.7277 1.51317 39.4081C1.92476 38.2605 12.9479 8.1011 13.5096 6.52739C14.604 3.48894 16.0033 0.353645 20.3201 0.353645ZM0.627059 55.1984C0.278424 55.1984 0 55.4889 0 55.8424V63.0063C0 63.3598 0.278424 63.6455 0.627059 63.6455H39.9962C40.3521 63.6455 40.6306 63.3598 40.6306 63.0063V55.8424C40.6306 55.4889 40.3521 55.1984 39.9962 55.1984H0.627059ZM20.2814 10.3624L14.6742 27.201H25.9806L20.354 10.3624H20.2814ZM104.421 37.9724C103.596 38.2508 103.051 38.3186 102.402 38.3186C101.061 38.3186 100.317 37.7884 100.317 36.4132C100.317 34.9799 101.262 34.5006 103.116 34.5006C103.569 34.5006 104.014 34.5659 104.223 34.6386V35.6651C104.223 36.7715 104.283 37.4978 104.421 37.9724ZM109.188 39.6139C108.198 38.1104 107.939 37.2243 107.939 35.3286V31.479C107.939 29.4066 107.697 28.6585 107.15 27.9031C106.387 26.833 105.116 26.3681 102.78 26.3681C101.126 26.3681 99.5209 26.5473 97.9666 26.9444L98.5283 29.6802C99.579 29.5325 100.681 29.4066 101.458 29.4066C103.939 29.4066 104.223 29.7649 104.223 31.6267V32.3216C103.671 32.1739 103.051 32.0674 102.332 32.0674C98.596 32.0674 96.6229 33.8953 96.6229 36.9216C96.6229 39.7591 98.7316 41.3062 101.3 41.3062C102.259 41.3062 103.261 41.1295 104.056 40.805C104.535 40.5968 104.743 40.4734 105.363 40.0715C105.736 40.6138 106.484 41.1682 106.789 41.2723L109.188 39.6139ZM146.141 37.9724C145.311 38.2508 144.776 38.3186 144.122 38.3186C142.776 38.3186 142.023 37.7884 142.023 36.4132C142.023 34.9799 142.979 34.5006 144.839 34.5006C145.291 34.5006 145.739 34.5659 145.943 34.6386V35.6651C145.943 36.7715 146.001 37.4978 146.141 37.9724ZM150.913 39.6139C149.916 38.1104 149.661 37.2243 149.661 35.3286V31.479C149.661 29.4066 149.415 28.6585 148.863 27.9031C148.11 26.833 146.836 26.3681 144.492 26.3681C142.841 26.3681 141.226 26.5473 139.672 26.9444L140.227 29.6802C141.28 29.5325 142.384 29.4066 143.183 29.4066C145.65 29.4066 145.943 29.7649 145.943 31.6267V32.3216C145.391 32.1739 144.776 32.0674 144.042 32.0674C140.302 32.0674 138.321 33.8953 138.321 36.9216C138.321 39.7591 140.435 41.3062 143.016 41.3062C143.986 41.3062 144.979 41.1295 145.766 40.805C146.253 40.5968 146.454 40.4734 147.073 40.0715C147.451 40.6138 148.199 41.1682 148.507 41.2723L150.913 39.6139ZM180 40.9842C180 40.9842 177.952 36.619 177.451 35.6264C176.886 34.5078 176.364 33.7355 175.211 33.4571V33.3941C175.983 33.2464 176.598 32.7792 177.271 31.3507C177.908 29.9586 178.097 29.6584 178.472 29.3267C178.84 28.9974 179.344 29.1161 179.344 29.1161L179.533 26.5425C178.998 26.4698 178.405 26.4674 177.792 26.5013C176.775 26.5618 176.25 26.8548 175.749 27.3584C175.356 27.7433 175.09 28.3195 174.761 28.9805C174.412 29.702 174.136 30.283 173.773 31.0166C173.412 31.7696 173.243 32.1085 172.272 32.1085H171.64V20.7077H167.899V40.9842H171.64V35.1542L172.151 35.1446C173.223 35.1446 173.412 35.4133 173.979 36.5439C174.642 37.8925 175.913 40.9842 175.913 40.9842H180ZM74.6249 40.9842H78.9417L72.4121 21.0466C71.7245 20.8166 70.8747 20.6738 69.9668 20.6738C68.9766 20.6738 68.6231 20.8045 67.8483 21.0466L60.9386 40.9842H65.081C65.081 40.9842 65.6403 39.2362 66.2988 37.0693H73.4556C74.0947 39.2338 74.6249 40.9842 74.6249 40.9842ZM67.3496 33.7258C67.3496 33.7258 68.5456 29.7238 68.732 29.1015C69.2066 27.4891 69.928 24.9276 69.928 24.9276H70.0467C70.0467 24.9276 70.7149 27.5811 71.1507 29.0725C71.3153 29.6657 72.4581 33.7258 72.4581 33.7258H67.3496ZM115.561 31.4451C114.241 31.4451 113.169 32.5225 113.169 33.842C113.169 35.1712 114.241 36.2413 115.561 36.2413C116.882 36.2413 117.95 35.1712 117.95 33.842C117.95 32.5225 116.882 31.4451 115.561 31.4451ZM84.0671 20.7077H80.3169V40.9818H84.0671V20.7077ZM158.576 29.5906C160.648 29.6342 160.905 30.0627 160.905 31.801V40.9842H164.621V31.479C164.621 29.4066 164.379 28.6585 163.827 27.9031C163.065 26.833 161.566 26.3681 159.031 26.3681C156.523 26.3681 154.925 26.6345 152.869 27.247V40.9842H156.624V29.7649C157.61 29.6221 157.784 29.5906 158.576 29.5906ZM93.3423 20.3469C90.9987 20.3469 89.7228 20.8118 88.9723 21.8795C88.4202 22.6373 88.1757 23.4023 88.1757 25.4796V27.247H86.3139V30.2782H88.1757V40.9842H91.8945L91.8848 30.2782H95.5915V27.247H91.8848L91.8945 25.6225C91.8945 23.7631 92.1778 23.4023 94.6618 23.4023C94.9305 23.4023 95.2332 23.4169 95.5552 23.4411L96.1411 20.5285C95.2235 20.4074 94.2841 20.3469 93.3423 20.3469ZM123.18 20.5358C124.456 20.4607 127.308 20.3542 129.097 20.3542C129.424 20.3542 129.763 20.3566 130.102 20.3736C133.619 20.3736 135.636 22.9351 135.636 25.942C135.636 27.9878 134.699 29.3461 132.503 30.1547C135.087 30.7261 136.44 32.7428 136.44 35.2099C136.44 37.0209 135.929 38.459 134.992 39.4396C133.777 40.6356 131.937 41.3062 129.487 41.3062C127.308 41.3062 124.572 41.2384 123.18 41.1561V20.5358ZM129.097 23.8575C128.477 23.8575 127.71 23.8696 126.949 23.8962V28.765H129.099C129.951 28.765 130.637 28.5277 131.104 28.0702C131.549 27.6392 131.782 27.0291 131.782 26.3052C131.782 24.7484 130.939 23.8672 129.373 23.8575H129.097ZM129.174 37.8102H129.336C131.29 37.8102 132.486 36.7715 132.501 34.6797C132.481 33.9292 132.193 33.2367 131.678 32.7356C131.114 32.1691 130.315 31.8737 129.378 31.8737H126.949V37.7884C127.634 37.8029 128.39 37.8053 129.174 37.8102Z" fill="#EE2A23"/>
</svg>
