<svg width="192" height="30" viewBox="0 0 192 30" fill="none" xmlns="http://www.w3.org/2000/svg">
<path d="M85.8658 8.92291L89.8715 5.9292H76.457V23.8641H89.8715V20.8679H80.2887V16.2903H88.4791V13.2966H80.2887V8.92291H85.8658Z" fill="#21A038"/>
<path d="M66.3226 12.9137H61.6754V8.92291H69.1099L73.1181 5.9292H57.8438V23.8641H65.8278C70.3009 23.8641 72.8844 21.8078 72.8844 18.2273C72.8844 14.7935 70.562 12.9137 66.3226 12.9137ZM65.6836 20.8679H61.6754V15.9074H65.6836C68.1228 15.9074 69.2541 16.7304 69.2541 18.4038C69.2541 20.0772 68.0358 20.8679 65.6836 20.8679Z" fill="#21A038"/>
<path d="M100.733 5.9292H93.4453V23.8641H97.277V18.7842H100.763C105.408 18.7842 108.312 16.3201 108.312 12.3567C108.312 8.39329 105.408 5.9292 100.733 5.9292ZM100.646 15.7905H97.2496V8.92291H100.646C103.115 8.92291 104.45 10.1562 104.45 12.3567C104.45 14.5572 103.115 15.7905 100.646 15.7905Z" fill="#21A038"/>
<path d="M51.2815 19.9885C50.267 20.548 49.1332 20.8414 47.972 20.8414C44.5159 20.8414 42.0194 18.345 42.0194 14.9112C42.0194 11.4774 44.5159 8.98096 47.972 8.98096C49.2202 8.95361 50.4411 9.36387 51.4556 10.0974L54.2156 8.04356L54.0415 7.86702C52.4452 6.42736 50.2944 5.69385 47.8552 5.69385C45.2145 5.69385 42.8027 6.60389 41.0621 8.24745C39.3191 9.95068 38.332 12.3277 38.3892 14.7943C38.3594 17.2882 39.3191 19.6951 41.0621 21.4556C42.8897 23.1886 45.3289 24.1583 47.8278 24.0987C50.5853 24.0987 52.9947 23.129 54.6209 21.3685L52.1543 19.5186L51.2815 19.9885Z" fill="#21A038"/>
<path d="M154.398 5.95904V23.8914H158.23V16.5539H166.391V23.8914H170.225V5.95904H166.391V13.3264H158.23V5.95904H154.398ZM147.807 23.8914H151.842L144.351 5.95904H140.459L132.823 23.8914H136.685L138.224 20.2811H146.355L147.807 23.8914ZM139.385 17.2874L142.347 10.0965L145.134 17.2874H139.385ZM178.82 16.6434H181.2L187.066 23.8641H192.001L184.161 14.5871L191.014 5.9292H186.63L180.939 13.6198H178.82V5.9292H174.986V23.8641H178.82V16.6434ZM120.162 12.9435V8.95274H130.18V5.95904H116.328V23.8914H124.315C128.785 23.8914 131.371 21.8376 131.371 18.2571C131.371 14.8233 129.049 12.9435 124.807 12.9435H120.162ZM120.162 20.8977V15.9372H124.17C126.607 15.9372 127.741 16.7603 127.741 18.4336C127.741 20.107 126.55 20.9276 124.17 20.9276H120.162V20.8977Z" fill="#21A038"/>
<path d="M26.3976 5.81299C27.0938 6.72303 27.6756 7.72011 28.168 8.77686L14.7535 18.7849L9.11914 15.2044V10.9202L14.7236 14.4709L26.3976 5.81299Z" fill="#21A038"/>
<path d="M3.39651 14.9103C3.39651 14.7039 3.39651 14.5299 3.42635 14.3235L0.0298376 14.147C0.0298376 14.3832 0 14.6468 0 14.8805C0 18.9906 1.65599 22.7178 4.32645 25.4181L6.73584 22.9814C4.67456 20.9276 3.39651 18.0806 3.39651 14.9103Z" fill="url(#paint0_linear_2126_67)"/>
<path d="M14.7221 3.46262C14.926 3.46262 15.1 3.46262 15.3039 3.49246L15.478 0.0586456C15.2442 0.0586456 14.9832 0.0288086 14.7519 0.0288086C10.6866 0.0288086 6.99912 1.7022 4.32617 4.4025L6.73556 6.83924C8.76949 4.75558 11.614 3.46262 14.7221 3.46262Z" fill="url(#paint1_linear_2126_67)"/>
<path d="M14.7227 26.3586C14.5188 26.3586 14.3447 26.3586 14.1408 26.3287L13.9668 29.7625C14.2005 29.7625 14.4616 29.7924 14.6928 29.7924C18.7582 29.7924 22.4481 28.119 25.1186 25.4187L22.7092 22.9819C20.6753 25.0954 17.8581 26.3586 14.7227 26.3586Z" fill="url(#paint2_linear_2126_67)"/>
<path d="M21.1104 5.45979L23.9847 3.31646C21.4585 1.26264 18.236 -0.000488281 14.7227 -0.000488281V3.43332C17.1047 3.46316 19.3102 4.19667 21.1104 5.45979Z" fill="url(#paint3_linear_2126_67)"/>
<path d="M29.4757 14.9102C29.4757 14.0002 29.3886 13.12 29.2419 12.2397L26.0767 14.6168C26.0767 14.7038 26.0767 14.8232 26.0767 14.9102C26.0767 18.2868 24.6246 21.3104 22.332 23.394L24.6246 25.9476C27.5884 23.2473 29.4757 19.2839 29.4757 14.9102Z" fill="#21A038"/>
<path d="M14.7228 26.3587C11.3834 26.3587 8.39222 24.8917 6.33094 22.5718L3.80469 24.8917C6.50499 27.9152 10.3963 29.7925 14.7228 29.7925V26.3587Z" fill="url(#paint4_linear_2126_67)"/>
<path d="M7.14362 6.42714L4.84861 3.87354C1.85739 6.60368 0 10.5373 0 14.911H3.39651C3.39651 11.5642 4.84861 8.51328 7.14362 6.42714Z" fill="url(#paint5_linear_2126_67)"/>
<defs>
<linearGradient id="paint0_linear_2126_67" x1="3.96425" y1="25.0006" x2="0.475894" y2="14.8716" gradientUnits="userSpaceOnUse">
<stop offset="0.1444" stop-color="#F2E913"/>
<stop offset="0.3037" stop-color="#E7E518"/>
<stop offset="0.5823" stop-color="#CADB26"/>
<stop offset="0.891" stop-color="#A3CD39"/>
</linearGradient>
<linearGradient id="paint1_linear_2126_67" x1="5.29498" y1="4.01487" x2="14.1088" y2="0.640834" gradientUnits="userSpaceOnUse">
<stop offset="0.0592" stop-color="#0FA8E0"/>
<stop offset="0.5385" stop-color="#0099F9"/>
<stop offset="0.9234" stop-color="#0291EB"/>
</linearGradient>
<linearGradient id="paint2_linear_2126_67" x1="13.7684" y1="26.8718" x2="24.2706" y2="24.4876" gradientUnits="userSpaceOnUse">
<stop offset="0.1226" stop-color="#A3CD39"/>
<stop offset="0.2846" stop-color="#86C339"/>
<stop offset="0.8693" stop-color="#21A038"/>
</linearGradient>
<linearGradient id="paint3_linear_2126_67" x1="14.0247" y1="2.18745" x2="22.7588" y2="4.89452" gradientUnits="userSpaceOnUse">
<stop offset="0.0566" stop-color="#0291EB"/>
<stop offset="0.79" stop-color="#0C8ACB"/>
</linearGradient>
<linearGradient id="paint4_linear_2126_67" x1="4.66837" y1="25.4349" x2="14.0518" y2="28.9568" gradientUnits="userSpaceOnUse">
<stop offset="0.1324" stop-color="#F2E913"/>
<stop offset="0.2977" stop-color="#EBE716"/>
<stop offset="0.5306" stop-color="#D9E01F"/>
<stop offset="0.8023" stop-color="#BBD62D"/>
<stop offset="0.9829" stop-color="#A3CD39"/>
</linearGradient>
<linearGradient id="paint5_linear_2126_67" x1="2.60331" y1="15.3259" x2="6.37404" y2="5.47237" gradientUnits="userSpaceOnUse">
<stop offset="0.0698" stop-color="#A3CD39"/>
<stop offset="0.2599" stop-color="#81C55F"/>
<stop offset="0.9216" stop-color="#0FA8E0"/>
</linearGradient>
</defs>
</svg>
