<svg width="13" height="14" viewBox="0 0 13 14" fill="none" xmlns="http://www.w3.org/2000/svg">
<path d="M1.38702 0.737915C1.06972 0.420614 0.555277 0.420614 0.237976 0.737915C-0.0793253 1.05522 -0.0793253 1.56966 0.237976 1.88696L5.35101 7L0.237976 12.113C-0.0793248 12.4303 -0.0793251 12.9448 0.237976 13.2621C0.555277 13.5794 1.06972 13.5794 1.38702 13.2621L6.50006 8.14905L11.613 13.262C11.9303 13.5793 12.4447 13.5793 12.762 13.262C13.0793 12.9447 13.0793 12.4302 12.762 12.1129L7.64911 7L12.762 1.88709C13.0793 1.56978 13.0793 1.05534 12.762 0.738037C12.4447 0.420736 11.9303 0.420736 11.613 0.738037L6.50006 5.85095L1.38702 0.737915Z" fill="white"/>
</svg>
