<svg width="21" height="20" viewBox="0 0 21 20" fill="none" xmlns="http://www.w3.org/2000/svg">
<g clip-path="url(#clip0_1_56)">
<path d="M18.1743 10.851C18.3448 9.35753 18.0626 7.84729 17.3644 6.51615C16.6661 5.18502 15.584 4.09442 14.2583 3.38582C12.9326 2.67721 11.4246 2.3833 9.92989 2.5422C8.43515 2.7011 7.02265 3.30548 5.87559 4.27695C4.72853 5.24842 3.89985 6.54215 3.49703 7.99033C3.09422 9.43851 3.13585 10.9743 3.61654 12.3986C4.09723 13.8228 4.99479 15.0697 6.1928 15.9776C7.39081 16.8855 8.83398 17.4125 10.3351 17.4902" stroke="white" stroke-opacity="0.7" stroke-width="2" stroke-linecap="round" stroke-linejoin="round"/>
<path d="M10.7227 5.83348V10.0002L13.2227 12.5002" stroke="white" stroke-opacity="0.7" stroke-width="2" stroke-linecap="round" stroke-linejoin="round"/>
<path d="M13.2227 15.8335L14.8893 17.5001L18.2227 14.1668" stroke="white" stroke-opacity="0.7" stroke-width="2" stroke-linecap="round" stroke-linejoin="round"/>
</g>
<defs>
<clipPath id="clip0_1_56">
<rect width="20" height="20" fill="white" transform="translate(0.722656 0.000152588)"/>
</clipPath>
</defs>
</svg>
