<svg width="120" height="120" viewBox="0 0 120 120" fill="none" xmlns="http://www.w3.org/2000/svg">
<path d="M31.6712 44.3486H0V76.0026H31.6712V44.3486Z" fill="#ED1A3A"/>
<path d="M26.5563 47.5017C25.8285 47.5017 25.2773 47.9844 25.0027 48.5643L21.0149 55.126C20.7384 55.7328 20.5365 56.4146 20.5365 56.8659C20.5365 57.2692 20.5919 57.6255 20.7397 57.9538L25.0535 68.2535H8.3022C7.6992 68.2535 7.20154 67.6482 7.20154 67.0894V49.3475C7.07479 46.922 3.58689 46.9233 3.51007 49.4237L3.58627 68.2535C3.58627 70.3007 5.16975 71.9408 7.20154 71.9408H30.0404L24.4735 57.7041C24.3199 57.174 24.2515 56.6934 24.6259 56.0615L28.3089 50.0756C28.3608 49.9508 28.4359 49.423 28.4359 49.2713C28.363 48.1843 27.5108 47.4537 26.5563 47.5017ZM17.5139 47.5102C16.6181 47.5162 15.7232 48.1347 15.7232 49.3475V62.0432C15.7232 63.8868 13.2425 63.7351 13.2425 62.0432V49.3475C13.2425 46.922 9.65264 46.922 9.65264 49.3475V62.1448C9.65264 65.0715 11.8392 67.0174 14.449 67.0174C17.1299 67.0174 19.3089 65.0715 19.3089 62.1448V49.3475C19.3089 48.1107 18.4098 47.5042 17.5139 47.5102Z" fill="white"/>
<path d="M37.876 48.0684V56.4432C37.876 58.5365 37.6629 59.7002 35.9576 59.7002C35.6388 59.7002 35.4256 59.7002 35.1068 59.585V63.1896C35.7444 63.4239 36.1707 63.4239 36.7046 63.4239C41.4979 63.4239 41.7111 59.8174 41.7111 57.7222V51.6749H44.4803V63.1896H48.3134V48.0684H37.876Z" fill="black"/>
<path d="M49.5924 48.0684L54.8121 59.0031L52.8955 63.1896H57.0493L63.2272 48.0684H59.0734L56.8362 54.4652L54.1726 48.0684H49.5924Z" fill="black"/>
<path d="M64.3987 63.1896H68.2337V56.6756L72.1744 63.1896H77.0733L71.6424 55.3966L76.9677 48.0684H72.3875L68.2337 54.4652V48.0684H64.3987V63.1896Z" fill="black"/>
<path d="M83.3588 63.6561C88.4709 63.6561 90.8138 59.7001 90.8138 55.6289C90.8138 51.6748 88.4709 47.7188 83.3588 47.7188C78.3523 47.7188 76.0094 51.6748 76.0094 55.6289C76.0094 59.7001 78.3523 63.6561 83.3588 63.6561ZM83.3588 60.0496C81.6535 60.0496 79.9501 58.5364 79.9501 55.6289C79.9501 52.7214 81.6535 51.3253 83.3588 51.3253C85.1697 51.3253 86.8731 52.7214 86.8731 55.6289C86.8731 58.5364 85.1697 60.0496 83.3588 60.0496Z" fill="black"/>
<path d="M92.7322 48.0683V63.1895H96.4597L101.785 54.1176V63.1895H105.514V48.0683H101.785L96.4597 57.1422V48.0683H92.7322ZM99.2289 47.2541C100.827 47.2541 102.424 46.6722 103.171 44.9265L100.934 43.9971C100.613 45.1608 99.6552 45.2761 99.2289 45.2761C98.9101 45.2761 97.8443 45.1608 97.6311 43.9971L95.3958 44.9265C96.0333 46.6722 97.7387 47.2541 99.2289 47.2541Z" fill="black"/>
<path d="M109.563 48.0684V56.4432C109.563 58.5365 109.348 59.7002 107.644 59.7002C107.325 59.7002 107.112 59.7002 106.792 59.585V63.1896C107.431 63.4239 107.857 63.4239 108.389 63.4239C113.183 63.4239 113.396 59.8174 113.396 57.7222V51.6749H116.165V63.1896H120V48.0684H109.563Z" fill="black"/>
<path d="M35.1376 71.6758H35.6772V68.8701H38.8286V71.6758H39.3682V66.1758H38.8286V68.4284H35.6772V66.1758H35.1376V71.6758Z" fill="black"/>
<path d="M40.7413 71.6758H43.6968V71.2341H41.281V68.8163H43.6008V68.3746H41.281V66.6194H43.6968V66.1758H40.7413V71.6758Z" fill="black"/>
<path d="M47.2533 71.676H47.7871V70.9194H48.0118C49.7901 70.9194 50.5256 69.867 50.5256 68.7647C50.5256 67.4742 49.5712 66.6196 48.0118 66.6196H47.7871V65.959H47.2533V66.6196H47.0363C45.4673 66.6196 44.5148 67.4742 44.5148 68.7647C44.5148 69.867 45.2503 70.9194 47.0363 70.9194H47.2533V71.676ZM47.7871 67.0613C49.5712 67.0843 49.9629 67.9178 49.9629 68.7647C49.9629 70.0859 49.0853 70.4297 47.7871 70.4758V67.0613ZM47.2533 70.4758C45.9551 70.4297 45.0774 70.0859 45.0774 68.7647C45.0774 67.9178 45.4673 67.0843 47.2533 67.0613V70.4758Z" fill="black"/>
<path d="M52.475 71.6758H52.9935V66.6194H54.4568V66.1758H51.0135V66.6194H52.475V71.6758Z" fill="black"/>
<path d="M55.0944 71.6758H55.7012L57.1646 69.2599H57.6293V71.6758H58.1709V66.1758H56.9015C55.2365 66.1758 54.9965 67.28 54.9965 67.7678C54.9965 68.6973 55.7243 69.2599 56.5808 69.2292L55.0944 71.6758ZM57.6293 68.8163H56.8496C56.408 68.8163 55.5303 68.7645 55.5303 67.714C55.5303 66.6943 56.4598 66.6194 56.9015 66.6194H57.6293V68.8163Z" fill="black"/>
<path d="M59.5516 71.6758H60.0913V68.8701H63.2426V71.6758H63.7823V66.1758H63.2426V68.4284H60.0913V66.1758H59.5516V71.6758Z" fill="black"/>
<path d="M64.5696 71.6758H65.1111L65.8678 69.8899H68.1857L68.9443 71.6758H69.4839L67.0162 66.0337L64.5696 71.6758ZM66.0637 69.4558L67.0162 67.2051L67.9917 69.4558H66.0637Z" fill="black"/>
<path d="M70.108 71.6758H70.7148L72.1781 69.2599H72.6429V71.6758H73.1825V66.1758H71.9151C70.2501 66.1758 70.01 67.28 70.01 67.7678C70.01 68.6973 70.7378 69.2599 71.5924 69.2292L70.108 71.6758ZM72.6429 68.8163H71.8632C71.4196 68.8163 70.542 68.7645 70.542 67.714C70.542 66.6943 71.4734 66.6194 71.9151 66.6194H72.6429V68.8163Z" fill="black"/>
<path d="M76.3877 71.6758H76.9273V69.0122L79.395 71.6758H80.0998L77.4362 68.8394L80.0557 66.1758H79.395L76.9273 68.7414V66.1758H76.3877V71.6758Z" fill="black"/>
<path d="M83.5816 71.8487C85.2178 71.8487 86.5601 70.6715 86.5601 68.9373C86.5601 67.2051 85.2178 66.0337 83.5816 66.0337C81.9685 66.0337 80.6261 67.2051 80.6261 68.9373C80.6261 70.6715 81.9685 71.8487 83.5816 71.8487ZM83.5816 71.3839C82.2392 71.3839 81.1888 70.3776 81.1888 68.9373C81.1888 67.497 82.2392 66.4696 83.5816 66.4696C84.9259 66.4696 85.9975 67.497 85.9975 68.9373C85.9975 70.3776 84.9259 71.3839 83.5816 71.3839Z" fill="black"/>
<path d="M87.3032 71.676H87.8217L88.3306 67.6163L90.3567 71.9237L92.3596 67.6163L92.9012 71.676H93.3871L92.6304 65.959L90.3567 70.8733L88.0599 65.959L87.3032 71.676Z" fill="black"/>
<path d="M94.4011 66.1758V71.6758H94.9408V66.6194H98.0921V71.6758H98.6318V66.1758H94.4011Z" fill="black"/>
<path d="M99.421 71.6758H99.9607L100.717 69.8899H103.037L103.794 71.6758H104.333L101.866 66.0337L99.421 71.6758ZM100.913 69.4558L101.866 67.2051L102.841 69.4558H100.913Z" fill="black"/>
<path d="M105.1 71.6758H105.639V68.8701H108.791V71.6758H109.332V66.1758H108.791V68.4284H105.639V66.1758H105.1V71.6758Z" fill="black"/>
<path d="M110.703 66.176V71.9237L114.471 67.3244V71.676H115.003V65.959L111.245 70.5276V66.176H110.703Z" fill="black"/>
<path d="M116.219 71.6758H116.826L118.289 69.2599H118.754V71.6758H119.295V66.1758H118.028C116.361 66.1758 116.121 67.28 116.121 67.7678C116.121 68.6973 116.849 69.2599 117.705 69.2292L116.219 71.6758ZM118.754 68.8163H117.974C117.532 68.8163 116.655 68.7645 116.655 67.714C116.655 66.6943 117.584 66.6194 118.028 66.6194H118.754V68.8163Z" fill="black"/>
</svg>
