<svg width="120" height="120" viewBox="0 0 120 120" fill="none" xmlns="http://www.w3.org/2000/svg">
<path d="M114.721 72.8852C117.082 72.8852 118.754 72.459 120 71.541V67.377C118.721 68.2623 117.18 68.8196 115.016 68.8196C111.377 68.8196 109.869 66 109.869 61.541C109.869 56.8524 111.705 54.459 115.049 54.459C117.016 54.459 118.951 55.1475 119.967 55.8032V51.4754C118.885 50.8852 117.016 50.459 114.459 50.459C107.934 50.459 104.557 55.1475 104.557 61.7049C104.59 68.8852 107.902 72.8852 114.721 72.8852ZM82.8197 70.9836V66.8196C81.2459 67.9016 78.5574 68.8524 76.0984 68.8524C72.3607 68.8524 70.9508 67.0819 70.7213 63.4754H83.0492V60.7869C83.0492 53.2787 79.7377 50.459 74.6558 50.459C68.4263 50.459 65.4754 55.2131 65.4754 61.7377C65.4754 69.2459 69.1804 72.8852 75.6722 72.8852C78.9181 72.8852 81.3115 72 82.8197 70.9836ZM36.0328 50.8524V59.377H29.2131V50.8524H24.0984V72.459H29.2131V63.4426H36.0328V72.459H41.1476V50.8524H36.0328ZM64.1968 68.3934H61.9345V50.8524H47.0492V52.6885C47.0492 57.9672 46.7213 64.7869 44.9181 68.3934H43.2787V77.377H48V72.459H59.4426V77.377H64.164V68.3934H64.1968ZM99.1148 72.459H104.918L96.7213 60.8196L103.934 50.8524H98.7869L91.5738 60.8196V50.8524H86.459V72.459H91.5738V61.836L99.1148 72.459ZM74.5246 54.459C77.0492 54.459 77.8361 56.5573 77.8361 59.2787V59.7049H70.7213C70.8525 56.2623 72.0984 54.459 74.5246 54.459ZM56.8197 68.3934H49.6066C51.0164 65.1475 51.4099 59.2459 51.4099 55.5082V54.8524H56.8197V68.3934Z" fill="black"/>
<path d="M19.8361 72.4591H14.623V46.6558H12.2951C8.03279 46.6558 5.80328 48.787 5.80328 51.9673C5.80328 55.5739 7.34426 57.246 10.5246 59.3771L13.1475 61.1476L5.60656 72.4591H0L6.78689 62.3608C2.88525 59.5739 0.688525 56.8526 0.688525 52.2624C0.688525 46.5247 4.68852 42.623 12.2623 42.623H19.8033V72.4591H19.8361Z" fill="#FC3F1D"/>
</svg>
