<svg width="120" height="120" viewBox="0 0 120 120" fill="none" xmlns="http://www.w3.org/2000/svg">
<path d="M63.2414 76.3989H68.0218V52.9641H63.2414V76.3989ZM57.5718 76.3989H62.3552V48.1289H57.5718V76.3989ZM51.9049 76.3989H56.6863V52.9641H51.9049V76.3989Z" fill="#FDCF00"/>
<path d="M63.2415 52.2295H68.0219V27.1572H63.2415V52.2295ZM68.9071 59.1098L73.6918 54.4997V32.383H68.9071M74.5766 53.8852L79.3575 49.7098V37.6916H74.5766M57.5719 47.0942H62.3553V21.9326H57.5719V47.0942ZM51.905 52.2295H56.6864V27.1572H51.905V52.2295ZM51.0164 59.1098L46.2342 54.4997V32.383H51.0164M45.3456 53.8852L40.5647 49.7098V37.6916H45.3456" fill="black"/>
<path d="M50.0641 91.4838C49.5169 90.9276 48.5132 90.6404 47.0838 90.5977H47.0776L41.3887 90.5957C40.8635 90.5957 40.4366 90.1804 40.4366 89.663C40.4366 89.1456 40.8635 88.7291 41.3887 88.7291H50.4485V85.9868H41.3719C39.7498 85.9868 38.627 86.2714 37.9984 86.8432C37.4253 87.3683 37.1123 88.1354 37.067 89.1417C36.8859 93.3806 39.517 93.3522 40.945 93.3923H40.9523L46.6399 93.3964C47.1676 93.3964 47.5919 93.8116 47.5919 94.3316C47.5919 94.8477 47.1676 95.2668 46.6399 95.2668H37.5516V98.0065H46.6567C48.2762 98.0065 49.4016 97.7232 50.0289 97.1502C50.6032 96.6237 50.9111 95.8606 50.959 94.8516C50.9631 94.7623 51.1507 92.582 50.0641 91.4838ZM19.1706 98.0312L15.0662 93.8751C16.4736 93.8259 17.4489 93.5387 17.996 92.9968C18.5949 92.403 18.8976 91.5454 18.8976 90.4291V89.4797C18.8976 88.3634 18.5949 87.5058 17.996 86.912C17.3945 86.3183 16.2821 86.0234 14.6484 86.0234H5V98.0234H8.63998V93.8828H10.9282L15.0183 98.0312H19.1706ZM8.63998 88.7553H14.0379C14.7131 88.7553 15.2589 89.2908 15.2589 89.9544C15.2589 90.6193 14.7131 91.1574 14.0379 91.1574H8.63998M106.02 88.7113H100.941V85.9639H115V88.7113H109.706V98.0363H106.02M88.8682 93.3292V98.0363H85.1804L85.161 89.4422C85.161 88.2741 85.4805 87.4036 86.1131 86.8266C86.7495 86.2523 87.8852 85.9639 89.5241 85.9639H99.2423V88.7126H91.1539C90.2498 88.7126 89.6457 88.8782 89.3404 89.2132C89.0403 89.5469 88.8799 90.0022 88.8683 90.583H99.2423V93.3292M34.1729 97.1412C33.5662 97.7362 32.4396 98.0363 30.7865 98.0363H25.3653C23.7264 98.0363 22.5907 97.7492 21.9569 97.1723C21.3243 96.5966 21.0048 95.7261 21.0048 94.5606V89.4422C21.0048 88.2741 21.3243 87.4036 21.9569 86.8279C22.5907 86.2536 23.7264 85.9639 25.3653 85.9639H30.7865C32.4396 85.9639 33.5662 86.2653 34.1729 86.8577C34.7821 87.4566 35.0835 88.3142 35.0835 89.4422V94.5606C35.0835 95.6847 34.7821 96.5449 34.1729 97.1412ZM31.3789 90.6257C31.3789 89.9622 31.2379 89.4758 30.9559 89.1705C30.6713 88.8639 30.0453 88.7113 29.0725 88.7113H26.9964C26.0935 88.7113 25.4882 88.8782 25.1868 89.2132C24.8841 89.5456 24.7302 90.0191 24.7302 90.6257V93.3719C24.7302 93.9837 24.8841 94.4546 25.1868 94.787C25.4882 95.122 26.0935 95.2889 26.9964 95.2889H29.0725C30.0453 95.2889 30.6662 95.1362 30.9339 94.8297C31.2043 94.5244 31.3504 94.0484 31.3789 93.3926M72.8519 93.3486C72.8687 93.9798 73.0239 94.4636 73.3253 94.7973C73.6254 95.1285 74.2165 95.2953 75.1168 95.2953H83.1095V98.0234H73.5038C71.8869 98.0234 70.7576 97.7401 70.1329 97.1645C69.5042 96.5915 69.1925 95.7274 69.1925 94.5684V89.4797C69.1925 88.3181 69.5042 87.4566 70.1329 86.881C70.7576 86.3105 71.8869 86.0234 73.5038 86.0234H83.1095V88.7566H75.1168C74.2165 88.7566 73.6254 88.9234 73.3253 89.2494C73.0239 89.578 72.8687 90.0333 72.8519 90.6167H83.1095V93.3486M67.0814 98.0674H63.3729V90.6775C63.3729 90.0074 63.2332 89.5262 62.9486 89.2223C62.6718 88.9131 62.0393 88.7605 61.0653 88.7605H58.993C58.0915 88.7605 57.4861 88.9286 57.1821 89.2624C56.8768 89.5922 56.7255 90.0669 56.7255 90.6775V98.0674H52.9988V89.49C52.9988 88.3246 53.3183 87.4527 53.9509 86.8784C54.5886 86.3028 55.7217 86.0156 57.3619 86.0156H62.7818C64.4349 86.0156 65.5641 86.3118 66.1708 86.9107C66.7775 87.5057 67.0814 88.3647 67.0814 89.49" fill="black"/>
</svg>
