<svg width="120" height="120" viewBox="0 0 120 120" fill="none" xmlns="http://www.w3.org/2000/svg">
<path d="M85.0295 38.0683V40.0087H101.686C102.794 40.0087 104.464 40.0087 105.576 41.1163C106.687 42.2282 106.687 43.8939 106.687 45.0057V61.6624C106.687 62.7743 106.687 64.4399 105.576 65.5476C104.464 66.6594 102.794 66.6594 101.686 66.6594H93.6538C92.2671 66.6594 90.4577 66.6594 89.7644 65.1333C89.0753 63.6029 90.0409 62.2162 90.8805 61.1086L101.703 46.6925H85.0464L78.3668 55.5705C77.2508 57.0586 76.2869 58.348 76.2869 60.0094C76.2869 61.6751 77.1831 62.8757 78.3668 64.4484L80.0325 66.6679C81.6982 68.8873 83.3638 71.1068 85.5706 72.206C87.7943 73.3094 90.4324 73.3094 94.0258 73.3094H101.255C105.423 73.3094 111.655 73.3094 115.84 69.1495C120 64.9853 120 58.8764 120 56.6781V49.9985C120 47.7748 120 41.6702 115.84 37.5271C111.672 33.3587 105.44 33.3714 101.255 33.3672L89.7559 33.3608C88.6525 33.3608 87.2574 33.3608 86.1456 34.4727C85.0422 35.5845 85.0422 36.9712 85.0422 38.0831" fill="#DA4216"/>
<path d="M65.1597 46.6504H81.6473L61.7776 73.2842H44.8673L65.1597 46.6504Z" fill="#DA4216"/>
<path d="M0.0549586 51.385C0.0549586 50.2773 0.0549587 48.8865 1.16681 47.7746C2.27444 46.667 3.66954 46.667 4.77717 46.667H32.6792C36.2854 46.667 38.9361 46.667 41.1344 47.7746C43.3497 48.8907 45.0153 51.1102 46.6725 53.3128L48.3424 55.5322C49.5304 57.1091 50.4309 58.3098 50.4309 59.9712C50.4309 61.6369 49.4585 62.9263 48.3424 64.4102L41.6628 73.2881H25.0062L35.8288 58.872C36.6616 57.7602 37.6382 56.3778 36.9406 54.8474C36.2515 53.3254 34.4464 53.3254 33.0597 53.3254H19.9965V86.6388H6.67958V53.3254H0V51.3807" fill="#DA4216"/>
</svg>
