<svg width="120" height="120" viewBox="0 0 120 120" fill="none" xmlns="http://www.w3.org/2000/svg">
<path d="M0 60C0 66.0834 4.78395 70.6308 11.1034 70.6308C13.3495 70.6308 15.295 70.1448 16.9814 68.9494V64.9778C15.3328 66.0416 13.1371 66.7297 11.0667 66.7297C7.061 66.7297 4.07047 63.9252 4.07047 60C4.07047 56.0745 7.061 53.2705 11.0667 53.2705C13.1371 53.2705 15.3328 53.9586 16.9814 55.0224V51.0505C15.295 49.8554 13.3495 49.3691 11.1034 49.3691C4.78395 49.3691 0 53.9168 0 60ZM95.2405 54.562C90.7167 54.562 87.0479 58.1681 87.0479 62.5964C87.0479 67.0247 90.717 70.6308 95.2405 70.6308C99.7635 70.6308 103.433 67.0249 103.433 62.5964C103.433 58.1679 99.7632 54.562 95.2405 54.562ZM95.2405 67.3412C92.6149 67.3412 90.5273 65.222 90.5273 62.5964C90.5273 59.9712 92.6149 57.8518 95.2405 57.8518C97.8657 57.8518 99.9533 59.9712 99.9533 62.5964C99.9533 65.222 97.8655 67.3412 95.2405 67.3412ZM116.471 54.8785L109.67 64.8746V54.8785H106.244V70.3147H109.724L116.521 60.3503V70.3147H120V54.8785H116.471ZM32.5994 62.1855C33.4534 61.6791 34.2759 60.5088 34.2759 59.212C34.2759 56.7133 32.3781 54.8785 29.7843 54.8785H21.0986V70.3143H30.1318C32.7258 70.3143 34.687 68.4482 34.687 65.8864C34.6872 64.1467 33.6433 62.7549 32.5994 62.1855ZM24.578 57.9152H29.2466C30.1318 57.9152 30.7962 58.5476 30.7962 59.4017C30.7962 60.2557 30.1318 60.8887 29.2466 60.8887H24.578V57.9152ZM29.4678 67.2782H24.578V63.9252H29.4678C30.4801 63.9252 31.2073 64.6522 31.2073 65.6015C31.2073 66.5504 30.4801 67.2782 29.4678 67.2782ZM43.1546 54.8787C40.0863 54.8787 37.777 57.1876 37.777 60.1927C37.777 62.6313 39.3321 64.6206 41.584 65.2578L37.3663 70.3147H41.858L45.8945 65.4751H47.8245V70.3147H51.3039V54.8787H43.1546ZM43.6289 57.9152H47.8245V62.4386H43.6289C42.2376 62.4386 41.2568 61.3947 41.2568 60.1929C41.2566 58.9275 42.2376 57.9152 43.6289 57.9152ZM73.9599 54.8785H70.4804V70.3147H73.9599V64.0517H80.7565V70.3147H84.236V54.8785H80.7565V61.0152H73.9599V54.8785ZM54.7429 69.4152V66.0005C56.1012 66.712 57.7618 67.3412 59.6602 67.3412C61.9677 67.3412 63.4239 66.6523 63.4239 65.4271C63.4239 64.3337 62.1516 63.9144 60.5319 63.9144H57.8769V60.8779H60.5319C62.1815 60.8779 63.1054 60.2723 63.1054 59.4434C63.1054 58.2278 61.6474 57.852 59.9621 57.852C58.0142 57.852 56.4329 58.4165 55.1417 59.0451V55.735C56.4811 55.0754 58.2555 54.562 60.4645 54.562C63.833 54.562 66.5704 56.3537 66.5704 58.8239C66.5704 60.6244 65.5154 61.7322 64.668 62.1055C65.7551 62.6183 66.9837 63.8963 66.9837 65.7434C66.9837 68.6393 64.2032 70.6306 60.1336 70.6306C57.7987 70.6308 56.0899 70.1258 54.7429 69.4152Z" fill="#4C1E87"/>
<path d="M112.834 54.0439C115.508 54.0439 117.548 52.3901 117.769 49.9641L114.981 49.6162C114.981 50.665 114.03 51.4702 112.834 51.4702C111.639 51.4702 110.687 50.665 110.687 49.6162L107.9 49.9641C108.121 52.3901 110.161 54.0439 112.834 54.0439Z" fill="#E41D94"/>
</svg>
