<svg width="120" height="120" viewBox="0 0 120 120" fill="none" xmlns="http://www.w3.org/2000/svg">
<path fill-rule="evenodd" clip-rule="evenodd" d="M94.8984 47.0356H99.9819V53.0879H104.815L111.411 46.9268H119.184L109.539 55.2214L120 63.712H112.282L104.815 57.344H99.9819V63.712H94.8984V47.0356ZM83.2402 47.1771C85.3664 47.1771 86.7562 47.1953 87.4093 47.2315C88.0697 47.2606 88.7555 47.3477 89.4666 47.4928C91.1285 47.8339 92.2133 48.7736 92.7213 50.3121C92.9028 50.8999 93.0261 51.5276 93.0914 52.1953C93.1567 52.8702 93.1894 53.8716 93.1894 55.2323C93.1894 56.7127 93.1568 57.8339 93.0697 58.5959C92.9971 59.3651 92.8556 60.0581 92.6451 60.675C92.1517 62.1336 91.1321 63.0335 89.5864 63.3745C88.8679 63.5414 88.0987 63.6502 87.2787 63.7011C86.4587 63.7519 85.1161 63.7773 83.2511 63.7773L80.2794 63.7991L73.0624 63.8099V65.8673H68.5559V63.7882L61.7525 63.7773H58.7917C56.9267 63.7773 55.5841 63.7519 54.7641 63.7011C53.9441 63.6502 53.1749 63.5414 52.4564 63.3745C50.9107 63.0335 49.8911 62.1336 49.3977 60.675C49.1872 60.0581 49.0457 59.3651 48.9731 58.5959C48.8861 57.8339 48.8534 56.7127 48.8534 55.2323C48.8534 53.8716 48.8861 52.8702 48.9514 52.1953C49.0167 51.5276 49.1437 50.8999 49.3324 50.3121C49.8331 48.7736 50.9143 47.8339 52.5762 47.4928C53.2873 47.3477 53.9731 47.2606 54.6335 47.2315C55.2866 47.1953 56.6764 47.1771 58.8026 47.1771C69.8512 47.1989 72.061 47.1118 83.2402 47.1771ZM73.0624 59.5973L79.7242 59.5429H83.2837C84.5827 59.5429 85.5406 59.5029 86.1575 59.4231C86.7671 59.3361 87.1989 59.1873 87.4528 58.9768C87.7286 58.7447 87.9209 58.3709 88.0298 57.8557C88.1459 57.3476 88.2039 56.5784 88.2039 55.548C88.2039 54.5175 88.1568 53.741 88.0624 53.2185C87.9609 52.7033 87.7903 52.3077 87.5508 52.032C87.2678 51.7381 86.8759 51.5421 86.3534 51.4551C85.8309 51.368 84.7932 51.3244 83.2402 51.3244C79.844 51.3244 76.4477 51.3244 73.0624 51.3244V59.5973ZM68.5559 51.3244C65.312 51.3244 62.0573 51.3244 58.8026 51.3244C57.2569 51.3244 56.2228 51.368 55.7003 51.4551C55.1778 51.5313 54.775 51.7272 54.492 52.032C54.2525 52.3077 54.082 52.7033 53.9804 53.2185C53.886 53.741 53.8389 54.5138 53.8389 55.5371C53.8389 56.5675 53.8969 57.3405 54.0131 57.8557C54.1219 58.3637 54.3178 58.7374 54.6009 58.9768C54.8476 59.1873 55.2793 59.3325 55.8962 59.4123C56.5058 59.4993 57.4601 59.5429 58.7591 59.5429C61.2953 59.5429 59.6517 59.5211 61.9485 59.5102H68.5559V51.3244ZM25.537 63.712V47.0247L46.7961 47.09L46.7416 50.9652L30.3701 50.9543V53.5995L43.9441 53.5668C49.1364 53.7301 49.0384 63.233 43.5087 63.6249C42.9318 63.6684 41.2337 63.6902 38.4361 63.712H25.537ZM30.381 59.7062H39.9601C41.4514 59.7062 42.3331 59.6844 42.6052 59.6626C42.8809 59.6481 43.1132 59.6046 43.3019 59.532C43.7446 59.3578 43.9659 58.9333 43.9659 58.2584C43.9659 57.5618 43.7046 57.1481 43.2039 57.0284C43.0297 56.9848 41.9412 56.9413 39.9601 56.9413H30.381V59.7062Z" fill="#034EAA"/>
<path d="M8.65385 60.2832V63.2222C8.65385 64.5829 7.54354 65.7041 6.18288 65.7041H2.47097C1.11031 65.7041 0 64.5829 0 63.2222V61.2302C2.83745 60.686 5.72207 60.3703 8.65385 60.2832ZM20.4318 61.1323V63.2222C20.4318 64.5829 19.3106 65.7041 17.9499 65.7041H14.238C12.8774 65.7041 11.7671 64.5829 11.7671 63.2222V60.2832C14.6117 60.3558 17.5 60.6388 20.4318 61.1323Z" fill="#034EAA"/>
<path d="M2.47097 45.958H6.18288C7.54354 45.958 8.65385 47.0792 8.65385 48.4399V52.1409C8.65385 53.5016 7.54354 54.6227 6.18288 54.6227H2.47097C1.11031 54.6227 0 53.5016 0 52.1409V48.4399C0 47.0792 1.11031 45.958 2.47097 45.958ZM14.238 45.958H17.9499C19.3106 45.958 20.4209 47.0792 20.4209 48.4399V52.1518C20.4209 53.5016 19.3106 54.6227 17.9499 54.6227H14.238C12.8774 54.6227 11.7671 53.5016 11.7671 52.1409V48.4399C11.7671 47.0792 12.8774 45.958 14.238 45.958ZM2.47097 57.0393H6.18288C7.54354 57.0393 8.65385 58.1605 8.65385 59.5211V60.4246C5.61684 60.5008 2.69957 60.8165 0 61.3172V59.5211C0 58.1605 1.11031 57.0393 2.47097 57.0393ZM14.238 57.0393H17.9499C19.3106 57.0393 20.4209 58.1605 20.4209 59.5211V61.3608C17.7213 60.8383 14.815 60.5117 11.7671 60.4246V59.5211C11.7671 58.1605 12.8774 57.0393 14.238 57.0393Z" fill="#FF7D24"/>
<path d="M91.0981 72.8666L99.5103 68.0161H100.625V74.0422H99.5016V69.1917L91.0894 74.0422H89.9747V68.0161H91.0981V72.8666Z" fill="#034EAA"/>
<path d="M39.6512 68.8086C39.0154 68.1903 38.162 68.0161 36.7339 68.0161H32.0053C29.6889 68.0161 28.4697 69.0176 28.4697 71.0292V71.0379C28.4697 73.0408 29.6889 74.0422 32.0053 74.0422H36.7339C38.162 74.0422 39.0154 73.8681 39.6512 73.2498L38.9632 72.4922C38.5017 72.9711 37.805 73.0669 36.7339 73.0669H32.0053C30.3594 73.0669 29.5408 72.4399 29.5408 71.0379V71.0292C29.5408 69.6271 30.3594 68.9914 32.0053 68.9914H36.7339C37.805 68.9914 38.5017 69.0872 38.9632 69.5662L39.6512 68.8086ZM44.4624 68.0161V74.0422H54.2505V73.1366H45.5335V71.482H53.6322V70.6112H45.5335V68.9218H54.2505V68.0161H44.4624ZM59.2221 68.0161V74.0422H60.2932V72.4225H66.9115C68.8709 72.4225 69.5676 71.4907 69.5676 70.2193V70.2106C69.5676 68.9479 68.8709 68.0161 66.9115 68.0161H59.2221ZM68.4877 70.2193C68.4877 71.0031 68.061 71.4472 66.9115 71.4472H60.2932V68.9914H66.9115C68.061 68.9914 68.4877 69.4356 68.4877 70.2106V70.2193ZM83.4887 70.9334C84.2899 70.7941 84.7253 70.3935 84.7253 69.5923C84.7253 68.5125 83.9241 68.0161 82.435 68.0161H74.4582V74.0422H82.8008C84.2899 74.0422 85.0823 73.5023 85.0823 72.4138C85.0823 71.3862 84.4292 71.0118 83.4887 70.9334ZM82.435 68.8695C83.2188 68.8695 83.6455 69.1221 83.6455 69.7142C83.6455 70.3325 83.2275 70.5676 82.4263 70.5676H75.5294V68.8695H82.435ZM75.5294 71.4036H82.8008C83.6019 71.4036 84.0025 71.6736 84.0025 72.3006C84.0025 72.9276 83.6019 73.1888 82.8008 73.1888H75.5294V71.4036ZM116.767 68.8086C116.131 68.1903 115.278 68.0161 113.85 68.0161H109.121C106.805 68.0161 105.586 69.0176 105.586 71.0292V71.0379C105.586 73.0408 106.805 74.0422 109.121 74.0422H113.85C115.278 74.0422 116.131 73.8681 116.767 73.2498L116.079 72.4922C115.618 72.9711 114.921 73.0669 113.85 73.0669H109.121C107.475 73.0669 106.657 72.4399 106.657 71.0379V71.0292C106.657 69.6271 107.475 68.9914 109.121 68.9914H113.85C114.921 68.9914 115.618 69.0872 116.079 69.5662L116.767 68.8086Z" fill="#034EAA"/>
</svg>
