<svg width="16" height="16" viewBox="0 0 16 16" fill="none" xmlns="http://www.w3.org/2000/svg">
<path fill-rule="evenodd" clip-rule="evenodd" d="M1.25053 0.990293C2.12886 -0.24402 3.8944 -0.354892 4.87963 0.84786C4.96271 0.949282 5.04646 1.05161 5.13021 1.15394C5.86214 2.04828 6.59372 2.94219 6.87496 3.22449C7.14705 3.49761 7.19904 3.92157 7.00107 4.25277L5.46049 6.83011C5.55923 6.9923 5.69302 7.18583 5.86418 7.40658C6.16939 7.80023 6.55938 8.23724 6.9943 8.6738C7.72672 9.40899 8.54669 10.1032 9.25251 10.5723L11.7802 9.04995C12.088 8.86456 12.4792 8.89641 12.7533 9.12917L15.1923 11.2008C16.3276 12.165 16.2549 13.9443 15.0447 14.8119C13.1786 16.1499 10.6705 16.4681 8.61557 15.2092C7.19896 14.3414 5.46309 13.1162 3.91014 11.5574C2.50556 10.1475 1.47219 8.68722 0.742809 7.45979C-0.508056 5.35478 -0.0712924 2.84784 1.25053 0.990293ZM3.58417 1.91707C3.32497 1.60064 2.87582 1.60267 2.61528 1.9688C1.57851 3.42577 1.35533 5.20423 2.18319 6.59739C2.85683 7.73102 3.8085 9.07451 5.09607 10.3669C6.52529 11.8016 8.14345 12.9477 9.4893 13.7722C10.8761 14.6218 12.655 14.4565 14.0699 13.442C14.3903 13.2123 14.4096 12.7412 14.109 12.4859L12.1283 10.8036L9.67825 12.2791C9.41887 12.4354 9.09577 12.4393 8.83273 12.2893C7.86978 11.7404 6.74426 10.8036 5.80838 9.86421C5.33587 9.38991 4.89737 8.90065 4.54064 8.44056C4.19383 7.99327 3.88691 7.52627 3.72188 7.10164C3.62755 6.85893 3.6505 6.58605 3.78403 6.36265L5.24327 3.92139C4.85184 3.46682 4.3318 2.83099 3.85109 2.24326C3.76034 2.1323 3.67099 2.02306 3.58417 1.91707Z" fill="#27292E"/>
</svg>
