<svg width="34" height="34" viewBox="0 0 34 34" fill="none" xmlns="http://www.w3.org/2000/svg">
<g clip-path="url(#clip0_1_303)">
<path d="M9.91669 28.3333H24.0834" stroke="#1F4DCA" stroke-width="2" stroke-linecap="round" stroke-linejoin="round"/>
<path d="M8.5 8.49992L17 7.08325L25.5 8.49992" stroke="#1F4DCA" stroke-width="2" stroke-linecap="round" stroke-linejoin="round"/>
<path d="M17 4.25V28.3333" stroke="#1F4DCA" stroke-width="2" stroke-linecap="round" stroke-linejoin="round"/>
<path d="M12.75 17L8.5 8.5L4.25 17C4.25 18.1272 4.69777 19.2082 5.4948 20.0052C6.29183 20.8022 7.37283 21.25 8.5 21.25C9.62717 21.25 10.7082 20.8022 11.5052 20.0052C12.3022 19.2082 12.75 18.1272 12.75 17Z" stroke="#1F4DCA" stroke-width="2" stroke-linecap="round" stroke-linejoin="round"/>
<path d="M29.75 17L25.5 8.5L21.25 17C21.25 18.1272 21.6978 19.2082 22.4948 20.0052C23.2918 20.8022 24.3728 21.25 25.5 21.25C26.6272 21.25 27.7082 20.8022 28.5052 20.0052C29.3022 19.2082 29.75 18.1272 29.75 17Z" stroke="#1F4DCA" stroke-width="2" stroke-linecap="round" stroke-linejoin="round"/>
</g>
<defs>
<clipPath id="clip0_1_303">
<rect width="34" height="34" fill="white"/>
</clipPath>
</defs>
</svg>
