<svg width="34" height="34" viewBox="0 0 34 34" fill="none" xmlns="http://www.w3.org/2000/svg">
<g clip-path="url(#clip0_1_268)">
<path d="M14.1667 12.7501C14.1667 13.5015 14.4652 14.2222 14.9966 14.7535C15.5279 15.2849 16.2486 15.5834 17 15.5834C17.7515 15.5834 18.4721 15.2849 19.0035 14.7535C19.5348 14.2222 19.8334 13.5015 19.8334 12.7501C19.8334 11.9986 19.5348 11.278 19.0035 10.7466C18.4721 10.2153 17.7515 9.91675 17 9.91675C16.2486 9.91675 15.5279 10.2153 14.9966 10.7466C14.4652 11.278 14.1667 11.9986 14.1667 12.7501Z" stroke="#1F4DCA" stroke-width="2" stroke-linecap="round" stroke-linejoin="round"/>
<path d="M5.66669 11.3334V8.50008C5.66669 7.74863 5.9652 7.02797 6.49655 6.49661C7.0279 5.96526 7.74857 5.66675 8.50002 5.66675H11.3334" stroke="#1F4DCA" stroke-width="2" stroke-linecap="round" stroke-linejoin="round"/>
<path d="M5.66669 22.6667V25.5001C5.66669 26.2515 5.9652 26.9722 6.49655 27.5035C7.0279 28.0349 7.74857 28.3334 8.50002 28.3334H11.3334" stroke="#1F4DCA" stroke-width="2" stroke-linecap="round" stroke-linejoin="round"/>
<path d="M22.6667 5.66675H25.5C26.2515 5.66675 26.9721 5.96526 27.5035 6.49661C28.0348 7.02797 28.3334 7.74863 28.3334 8.50008V11.3334" stroke="#1F4DCA" stroke-width="2" stroke-linecap="round" stroke-linejoin="round"/>
<path d="M22.6667 28.3334H25.5C26.2515 28.3334 26.9721 28.0349 27.5035 27.5035C28.0348 26.9722 28.3334 26.2515 28.3334 25.5001V22.6667" stroke="#1F4DCA" stroke-width="2" stroke-linecap="round" stroke-linejoin="round"/>
<path d="M11.3333 22.6666C11.3333 21.9151 11.6318 21.1945 12.1632 20.6631C12.6945 20.1318 13.4152 19.8333 14.1666 19.8333H19.8333C20.5848 19.8333 21.3054 20.1318 21.8368 20.6631C22.3681 21.1945 22.6666 21.9151 22.6666 22.6666" stroke="#1F4DCA" stroke-width="2" stroke-linecap="round" stroke-linejoin="round"/>
</g>
<defs>
<clipPath id="clip0_1_268">
<rect width="34" height="34" fill="white"/>
</clipPath>
</defs>
</svg>
