<svg width="34" height="34" viewBox="0 0 34 34" fill="none" xmlns="http://www.w3.org/2000/svg">
<g clip-path="url(#clip0_1_235)">
<path d="M11.3333 9.91667C11.3333 11.4196 11.9303 12.8609 12.993 13.9236C14.0557 14.9863 15.4971 15.5833 17 15.5833C18.5029 15.5833 19.9442 14.9863 21.0069 13.9236C22.0696 12.8609 22.6666 11.4196 22.6666 9.91667C22.6666 8.41377 22.0696 6.97243 21.0069 5.90973C19.9442 4.84702 18.5029 4.25 17 4.25C15.4971 4.25 14.0557 4.84702 12.993 5.90973C11.9303 6.97243 11.3333 8.41377 11.3333 9.91667Z" stroke="#1F4DCA" stroke-width="2" stroke-linecap="round" stroke-linejoin="round"/>
<path d="M8.5 29.75V26.9167C8.5 25.4138 9.09702 23.9724 10.1597 22.9097C11.2224 21.847 12.6638 21.25 14.1667 21.25H14.875" stroke="#1F4DCA" stroke-width="2" stroke-linecap="round" stroke-linejoin="round"/>
<path d="M25.2166 29.4908L22.1396 31.103C22.0483 31.1505 21.9456 31.1717 21.8429 31.1643C21.7403 31.1568 21.6417 31.1209 21.5582 31.0607C21.4748 31.0004 21.4097 30.9182 21.3703 30.8231C21.3308 30.728 21.3186 30.6238 21.335 30.5222L21.9229 27.1066L19.4338 24.6883C19.3595 24.6165 19.3069 24.5253 19.282 24.425C19.2571 24.3247 19.2609 24.2194 19.2929 24.1212C19.325 24.0229 19.384 23.9357 19.4633 23.8694C19.5426 23.8031 19.6389 23.7604 19.7412 23.7463L23.1809 23.2476L24.7194 20.1408C24.7654 20.0483 24.8363 19.9704 24.9242 19.916C25.012 19.8616 25.1133 19.8328 25.2166 19.8328C25.32 19.8328 25.4213 19.8616 25.5091 19.916C25.597 19.9704 25.6679 20.0483 25.7139 20.1408L27.2524 23.2476L30.6921 23.7463C30.7941 23.7609 30.89 23.8039 30.9689 23.8702C31.0479 23.9366 31.1066 24.0237 31.1386 24.1217C31.1706 24.2198 31.1745 24.3248 31.1499 24.4249C31.1253 24.525 31.0732 24.6163 30.9995 24.6883L28.5104 27.1066L29.0969 30.5208C29.1145 30.6226 29.1032 30.7273 29.0643 30.823C29.0254 30.9187 28.9604 31.0016 28.8767 31.0622C28.7931 31.1229 28.6941 31.1588 28.591 31.166C28.4879 31.1732 28.3849 31.1514 28.2936 31.103L25.2166 29.4908Z" stroke="#1F4DCA" stroke-width="2" stroke-linecap="round" stroke-linejoin="round"/>
</g>
<defs>
<clipPath id="clip0_1_235">
<rect width="34" height="34" fill="white"/>
</clipPath>
</defs>
</svg>
