<svg width="28" height="28" viewBox="0 0 28 28" fill="none" xmlns="http://www.w3.org/2000/svg">
<g clip-path="url(#clip0_1_2134)">
<path d="M3.5 15.1667C3.5 14.8572 3.62292 14.5605 3.84171 14.3417C4.0605 14.1229 4.35725 14 4.66667 14H9.33333C9.64275 14 9.9395 14.1229 10.1583 14.3417C10.3771 14.5605 10.5 14.8572 10.5 15.1667V22.1667C10.5 22.4761 10.3771 22.7728 10.1583 22.9916C9.9395 23.2104 9.64275 23.3333 9.33333 23.3333H4.66667C4.35725 23.3333 4.0605 23.2104 3.84171 22.9916C3.62292 22.7728 3.5 22.4761 3.5 22.1667V15.1667Z" stroke="white" stroke-width="2" stroke-linecap="round" stroke-linejoin="round"/>
<path d="M10.5 10.5C10.5 10.1906 10.6229 9.89388 10.8417 9.67508C11.0605 9.45629 11.3572 9.33337 11.6667 9.33337H16.3333C16.6428 9.33337 16.9395 9.45629 17.1583 9.67508C17.3771 9.89388 17.5 10.1906 17.5 10.5V22.1667C17.5 22.4761 17.3771 22.7729 17.1583 22.9917C16.9395 23.2105 16.6428 23.3334 16.3333 23.3334H11.6667C11.3572 23.3334 11.0605 23.2105 10.8417 22.9917C10.6229 22.7729 10.5 22.4761 10.5 22.1667V10.5Z" stroke="white" stroke-width="2" stroke-linecap="round" stroke-linejoin="round"/>
<path d="M17.5 5.83329C17.5 5.52387 17.6229 5.22713 17.8417 5.00833C18.0605 4.78954 18.3572 4.66663 18.6667 4.66663H23.3333C23.6428 4.66663 23.9395 4.78954 24.1583 5.00833C24.3771 5.22713 24.5 5.52387 24.5 5.83329V22.1666C24.5 22.476 24.3771 22.7728 24.1583 22.9916C23.9395 23.2104 23.6428 23.3333 23.3333 23.3333H18.6667C18.3572 23.3333 18.0605 23.2104 17.8417 22.9916C17.6229 22.7728 17.5 22.476 17.5 22.1666V5.83329Z" stroke="white" stroke-width="2" stroke-linecap="round" stroke-linejoin="round"/>
<path d="M4.6665 23.3334H20.9998" stroke="white" stroke-width="2" stroke-linecap="round" stroke-linejoin="round"/>
</g>
<defs>
<clipPath id="clip0_1_2134">
<rect width="28" height="28" fill="white"/>
</clipPath>
</defs>
</svg>
