<svg width="28" height="28" viewBox="0 0 28 28" fill="none" xmlns="http://www.w3.org/2000/svg">
<g clip-path="url(#clip0_1_2037)">
<path d="M6.99984 14H20.9998V11.6667C20.9998 11.0478 21.2457 10.4543 21.6833 10.0168C22.1208 9.57917 22.7143 9.33333 23.3332 9.33333C23.3332 8.71449 23.0873 8.121 22.6498 7.68342C22.2122 7.24583 21.6187 7 20.9998 7H6.99984C6.381 7 5.78751 7.24583 5.34992 7.68342C4.91234 8.121 4.6665 8.71449 4.6665 9.33333C5.28534 9.33333 5.87883 9.57917 6.31642 10.0168C6.754 10.4543 6.99984 11.0478 6.99984 11.6667V14Z" stroke="white" stroke-width="2" stroke-linecap="round" stroke-linejoin="round"/>
<path d="M7 17.5H21" stroke="white" stroke-width="2" stroke-linecap="round" stroke-linejoin="round"/>
<path d="M7 21H21" stroke="white" stroke-width="2" stroke-linecap="round" stroke-linejoin="round"/>
<path d="M24.5 12.8333V21" stroke="white" stroke-width="2" stroke-linecap="round" stroke-linejoin="round"/>
<path d="M3.5 12.8333V21" stroke="white" stroke-width="2" stroke-linecap="round" stroke-linejoin="round"/>
</g>
<defs>
<clipPath id="clip0_1_2037">
<rect width="28" height="28" fill="white"/>
</clipPath>
</defs>
</svg>
