<svg width="28" height="28" viewBox="0 0 28 28" fill="none" xmlns="http://www.w3.org/2000/svg">
<g clip-path="url(#clip0_1_2158)">
<path d="M7 14C7 14.9283 7.36875 15.8185 8.02513 16.4749C8.6815 17.1313 9.57174 17.5 10.5 17.5C11.4283 17.5 12.3185 17.1313 12.9749 16.4749C13.6313 15.8185 14 14.9283 14 14C14 13.0717 13.6313 12.1815 12.9749 11.5251C12.3185 10.8687 11.4283 10.5 10.5 10.5C9.57174 10.5 8.6815 10.8687 8.02513 11.5251C7.36875 12.1815 7 13.0717 7 14Z" stroke="white" stroke-width="2" stroke-linecap="round" stroke-linejoin="round"/>
<path d="M10.5 17.5V24.5" stroke="white" stroke-width="2" stroke-linecap="round" stroke-linejoin="round"/>
<path d="M13.4165 11.0833L20.9998 3.5" stroke="white" stroke-width="2" stroke-linecap="round" stroke-linejoin="round"/>
<path d="M15.1665 3.5H20.9998V9.33333" stroke="white" stroke-width="2" stroke-linecap="round" stroke-linejoin="round"/>
</g>
<defs>
<clipPath id="clip0_1_2158">
<rect width="28" height="28" fill="white"/>
</clipPath>
</defs>
</svg>
