<svg width="28" height="28" viewBox="0 0 28 28" fill="none" xmlns="http://www.w3.org/2000/svg">
<g clip-path="url(#clip0_1_2146)">
<path d="M24.5 15.1667C24.5 14.8572 24.3771 14.5605 24.1583 14.3417C23.9395 14.1229 23.6428 14 23.3333 14H18.6667C18.3572 14 18.0605 14.1229 17.8417 14.3417C17.6229 14.5605 17.5 14.8572 17.5 15.1667V22.1667C17.5 22.4761 17.6229 22.7728 17.8417 22.9916C18.0605 23.2104 18.3572 23.3333 18.6667 23.3333H23.3333C23.6428 23.3333 23.9395 23.2104 24.1583 22.9916C24.3771 22.7728 24.5 22.4761 24.5 22.1667V15.1667Z" stroke="white" stroke-width="2" stroke-linecap="round" stroke-linejoin="round"/>
<path d="M17.5 10.5C17.5 10.1906 17.3771 9.89388 17.1583 9.67508C16.9395 9.45629 16.6428 9.33337 16.3333 9.33337H11.6667C11.3572 9.33337 11.0605 9.45629 10.8417 9.67508C10.6229 9.89388 10.5 10.1906 10.5 10.5V22.1667C10.5 22.4761 10.6229 22.7729 10.8417 22.9917C11.0605 23.2105 11.3572 23.3334 11.6667 23.3334H16.3333C16.6428 23.3334 16.9395 23.2105 17.1583 22.9917C17.3771 22.7729 17.5 22.4761 17.5 22.1667V10.5Z" stroke="white" stroke-width="2" stroke-linecap="round" stroke-linejoin="round"/>
<path d="M10.5 5.83329C10.5 5.52387 10.3771 5.22713 10.1583 5.00833C9.9395 4.78954 9.64275 4.66663 9.33333 4.66663H4.66667C4.35725 4.66663 4.0605 4.78954 3.84171 5.00833C3.62292 5.22713 3.5 5.52387 3.5 5.83329V22.1666C3.5 22.476 3.62292 22.7728 3.84171 22.9916C4.0605 23.2104 4.35725 23.3333 4.66667 23.3333H9.33333C9.64275 23.3333 9.9395 23.2104 10.1583 22.9916C10.3771 22.7728 10.5 22.476 10.5 22.1666V5.83329Z" stroke="white" stroke-width="2" stroke-linecap="round" stroke-linejoin="round"/>
<path d="M23.3335 23.3334H7.00016" stroke="white" stroke-width="2" stroke-linecap="round" stroke-linejoin="round"/>
</g>
<defs>
<clipPath id="clip0_1_2146">
<rect width="28" height="28" fill="white" transform="matrix(-1 0 0 1 28 0)"/>
</clipPath>
</defs>
</svg>
