<svg width="28" height="28" viewBox="0 0 28 28" fill="none" xmlns="http://www.w3.org/2000/svg">
<g clip-path="url(#clip0_1_2112)">
<path d="M10.5 14H24.5" stroke="white" stroke-width="2" stroke-linecap="round" stroke-linejoin="round"/>
<path d="M19.8335 18.6667L24.5002 14L19.8335 9.33337" stroke="white" stroke-width="2" stroke-linecap="round" stroke-linejoin="round"/>
<path d="M14 3.5C12.6211 3.5 11.2557 3.77159 9.98182 4.29926C8.70791 4.82694 7.55039 5.60036 6.57538 6.57538C5.60036 7.55039 4.82694 8.70791 4.29927 9.98182C3.77159 11.2557 3.5 12.6211 3.5 14C3.5 15.3789 3.77159 16.7443 4.29927 18.0182C4.82694 19.2921 5.60036 20.4496 6.57538 21.4246C7.55039 22.3996 8.70791 23.1731 9.98182 23.7007C11.2557 24.2284 12.6211 24.5 14 24.5" stroke="white" stroke-width="2" stroke-linecap="round" stroke-linejoin="round"/>
</g>
<defs>
<clipPath id="clip0_1_2112">
<rect width="28" height="28" fill="white"/>
</clipPath>
</defs>
</svg>
