<svg width="28" height="28" viewBox="0 0 28 28" fill="none" xmlns="http://www.w3.org/2000/svg">
<g clip-path="url(#clip0_1_2797)">
<path d="M4.66699 5.83333C4.66699 5.21449 4.91282 4.621 5.35041 4.18342C5.78799 3.74583 6.38149 3.5 7.00033 3.5H21.0003C21.6192 3.5 22.2127 3.74583 22.6502 4.18342C23.0878 4.621 23.3337 5.21449 23.3337 5.83333V22.1667C23.3337 22.7855 23.0878 23.379 22.6502 23.8166C22.2127 24.2542 21.6192 24.5 21.0003 24.5H7.00033C6.38149 24.5 5.78799 24.2542 5.35041 23.8166C4.91282 23.379 4.66699 22.7855 4.66699 22.1667V5.83333Z" stroke="white" stroke-width="2" stroke-linecap="round" stroke-linejoin="round"/>
<path d="M9.33301 9.33332C9.33301 9.0239 9.45592 8.72716 9.67472 8.50837C9.89351 8.28957 10.1903 8.16666 10.4997 8.16666H17.4997C17.8091 8.16666 18.1058 8.28957 18.3246 8.50837C18.5434 8.72716 18.6663 9.0239 18.6663 9.33332V10.5C18.6663 10.8094 18.5434 11.1062 18.3246 11.3249C18.1058 11.5437 17.8091 11.6667 17.4997 11.6667H10.4997C10.1903 11.6667 9.89351 11.5437 9.67472 11.3249C9.45592 11.1062 9.33301 10.8094 9.33301 10.5V9.33332Z" stroke="white" stroke-width="2" stroke-linecap="round" stroke-linejoin="round"/>
<path d="M9.33301 16.3333V16.3433" stroke="white" stroke-width="2" stroke-linecap="round" stroke-linejoin="round"/>
<path d="M14 16.3333V16.3433" stroke="white" stroke-width="2" stroke-linecap="round" stroke-linejoin="round"/>
<path d="M18.667 16.3333V16.3433" stroke="white" stroke-width="2" stroke-linecap="round" stroke-linejoin="round"/>
<path d="M9.33301 19.8333V19.8433" stroke="white" stroke-width="2" stroke-linecap="round" stroke-linejoin="round"/>
<path d="M14 19.8333V19.8433" stroke="white" stroke-width="2" stroke-linecap="round" stroke-linejoin="round"/>
<path d="M18.667 19.8333V19.8433" stroke="white" stroke-width="2" stroke-linecap="round" stroke-linejoin="round"/>
</g>
<defs>
<clipPath id="clip0_1_2797">
<rect width="28" height="28" fill="white"/>
</clipPath>
</defs>
</svg>
