<svg width="28" height="28" viewBox="0 0 28 28" fill="none" xmlns="http://www.w3.org/2000/svg">
<g clip-path="url(#clip0_1_2170)">
<path d="M8.16667 4.66663C7.54783 4.66663 6.95434 4.91246 6.51675 5.35004C6.07917 5.78763 5.83333 6.38112 5.83333 6.99996V10.5C5.83333 11.4282 5.5875 12.3185 5.14992 12.9748C4.71233 13.6312 4.11884 14 3.5 14C4.11884 14 4.71233 14.3687 5.14992 15.0251C5.5875 15.6815 5.83333 16.5717 5.83333 17.5V21C5.83333 21.6188 6.07917 22.2123 6.51675 22.6499C6.95434 23.0875 7.54783 23.3333 8.16667 23.3333" stroke="white" stroke-width="2" stroke-linecap="round" stroke-linejoin="round"/>
<path d="M19.8335 4.66663C20.4523 4.66663 21.0458 4.91246 21.4834 5.35004C21.921 5.78763 22.1668 6.38112 22.1668 6.99996V10.5C22.1668 11.4282 22.4127 12.3185 22.8502 12.9748C23.2878 13.6312 23.8813 14 24.5002 14C23.8813 14 23.2878 14.3687 22.8502 15.0251C22.4127 15.6815 22.1668 16.5717 22.1668 17.5V21C22.1668 21.6188 21.921 22.2123 21.4834 22.6499C21.0458 23.0875 20.4523 23.3333 19.8335 23.3333" stroke="white" stroke-width="2" stroke-linecap="round" stroke-linejoin="round"/>
</g>
<defs>
<clipPath id="clip0_1_2170">
<rect width="28" height="28" fill="white"/>
</clipPath>
</defs>
</svg>
