<svg width="28" height="28" viewBox="0 0 28 28" fill="none" xmlns="http://www.w3.org/2000/svg">
<g clip-path="url(#clip0_1_183)">
<path d="M10.5 12.8334C10.5 13.7616 10.8687 14.6519 11.5251 15.3082C12.1815 15.9646 13.0717 16.3334 14 16.3334C14.9283 16.3334 15.8185 15.9646 16.4749 15.3082C17.1313 14.6519 17.5 13.7616 17.5 12.8334C17.5 11.9051 17.1313 11.0149 16.4749 10.3585C15.8185 9.70212 14.9283 9.33337 14 9.33337C13.0717 9.33337 12.1815 9.70212 11.5251 10.3585C10.8687 11.0149 10.5 11.9051 10.5 12.8334Z" stroke="white" stroke-width="2" stroke-linecap="round" stroke-linejoin="round"/>
<path d="M13.8483 25.06C13.2836 25.0242 12.7514 24.7836 12.3515 24.3833L7.40015 19.4332C6.23798 18.2704 5.40353 16.8214 4.98123 15.2326C4.55893 13.6438 4.56376 11.9717 4.99524 10.3854C5.42671 8.79908 6.26951 7.35488 7.43838 6.1989C8.60725 5.04292 10.0607 4.21617 11.6517 3.80231C13.2427 3.38845 14.9148 3.40216 16.4988 3.84204C18.0828 4.28193 19.5225 5.13239 20.6722 6.30738C21.822 7.48236 22.641 8.94019 23.0464 10.5334C23.4518 12.1265 23.4293 13.7985 22.981 15.3802" stroke="white" stroke-width="2" stroke-linecap="round" stroke-linejoin="round"/>
<path d="M17.5 22.1667L19.8333 24.5L24.5 19.8334" stroke="white" stroke-width="2" stroke-linecap="round" stroke-linejoin="round"/>
</g>
<defs>
<clipPath id="clip0_1_183">
<rect width="28" height="28" fill="white"/>
</clipPath>
</defs>
</svg>
