<svg width="28" height="28" viewBox="0 0 28 28" fill="none" xmlns="http://www.w3.org/2000/svg">
<g clip-path="url(#clip0_1_2062)">
<path d="M7.5087 9.33307C7.16887 10.3592 6.9971 11.4336 7.00004 12.5146C7.00004 17.2011 10.1337 20.9997 14 20.9997C17.8664 20.9997 21 17.2011 21 12.5146C21.003 11.4336 20.8312 10.3592 20.4914 9.33307" stroke="white" stroke-width="2" stroke-linecap="round" stroke-linejoin="round"/>
<path d="M16.9168 24.4998C16.9168 24.4998 16.1212 20.9998 14.0002 20.9998C11.8792 20.9998 11.0835 24.4998 11.0835 24.4998" stroke="white" stroke-width="2" stroke-linecap="round" stroke-linejoin="round"/>
<path d="M21.6065 6.10142C21.9472 8.04509 20.4165 9.33309 20.4165 9.33309C20.4165 9.33309 18.5464 8.67626 18.2057 6.73142C17.865 4.78776 19.3957 3.49976 19.3957 3.49976C19.3957 3.49976 21.2659 4.15659 21.6065 6.10142Z" stroke="white" stroke-width="2" stroke-linecap="round" stroke-linejoin="round"/>
<path d="M24.6097 14.1631C23.1152 15.6401 21.0911 15.0498 21.0911 15.0498C21.0911 15.0498 20.5614 12.9824 22.0571 11.5031C23.5504 10.0261 25.5757 10.6164 25.5757 10.6164C25.5757 10.6164 26.1054 12.6838 24.6097 14.1631Z" stroke="white" stroke-width="2" stroke-linecap="round" stroke-linejoin="round"/>
<path d="M20.6895 21.9634C18.9395 21.2926 18.6665 19.4084 18.6665 19.4084C18.6665 19.4084 20.1447 18.1974 21.8947 18.8694C23.6447 19.5402 23.9165 21.4244 23.9165 21.4244C23.9165 21.4244 22.4395 22.6354 20.6895 21.9634Z" stroke="white" stroke-width="2" stroke-linecap="round" stroke-linejoin="round"/>
<path d="M7.31166 21.9634C9.06166 21.2926 9.3335 19.4084 9.3335 19.4084C9.3335 19.4084 7.85533 18.1974 6.10533 18.8694C4.35533 19.5402 4.0835 21.4244 4.0835 21.4244C4.0835 21.4244 5.56166 22.6354 7.31166 21.9634Z" stroke="white" stroke-width="2" stroke-linecap="round" stroke-linejoin="round"/>
<path d="M3.39055 14.1631C4.88505 15.6401 6.90921 15.0498 6.90921 15.0498C6.90921 15.0498 7.43888 12.9824 5.94321 11.5031C4.44871 10.0273 2.42455 10.6164 2.42455 10.6164C2.42455 10.6164 1.89488 12.6838 3.39055 14.1631Z" stroke="white" stroke-width="2" stroke-linecap="round" stroke-linejoin="round"/>
<path d="M6.39321 6.10142C6.05255 8.04509 7.58321 9.33309 7.58321 9.33309C7.58321 9.33309 9.45338 8.67626 9.79405 6.73142C10.1347 4.78776 8.60405 3.49976 8.60405 3.49976C8.60405 3.49976 6.73388 4.15659 6.39321 6.10142Z" stroke="white" stroke-width="2" stroke-linecap="round" stroke-linejoin="round"/>
</g>
<defs>
<clipPath id="clip0_1_2062">
<rect width="28" height="28" fill="white" transform="translate(0 -0.000244141)"/>
</clipPath>
</defs>
</svg>
