<svg width="28" height="28" viewBox="0 0 28 28" fill="none" xmlns="http://www.w3.org/2000/svg">
<g clip-path="url(#clip0_1_2078)">
<path d="M10.5002 5.83337H8.16683C7.54799 5.83337 6.9545 6.07921 6.51691 6.51679C6.07933 6.95438 5.8335 7.54787 5.8335 8.16671V22.1667C5.8335 22.7855 6.07933 23.379 6.51691 23.8166C6.9545 24.2542 7.54799 24.5 8.16683 24.5H19.8335C20.4523 24.5 21.0458 24.2542 21.4834 23.8166C21.921 23.379 22.1668 22.7855 22.1668 22.1667V8.16671C22.1668 7.54787 21.921 6.95438 21.4834 6.51679C21.0458 6.07921 20.4523 5.83337 19.8335 5.83337H17.5002" stroke="white" stroke-width="2" stroke-linecap="round" stroke-linejoin="round"/>
<path d="M10.5 5.83333C10.5 5.21449 10.7458 4.621 11.1834 4.18342C11.621 3.74583 12.2145 3.5 12.8333 3.5H15.1667C15.7855 3.5 16.379 3.74583 16.8166 4.18342C17.2542 4.621 17.5 5.21449 17.5 5.83333C17.5 6.45217 17.2542 7.04566 16.8166 7.48325C16.379 7.92083 15.7855 8.16667 15.1667 8.16667H12.8333C12.2145 8.16667 11.621 7.92083 11.1834 7.48325C10.7458 7.04566 10.5 6.45217 10.5 5.83333Z" stroke="white" stroke-width="2" stroke-linecap="round" stroke-linejoin="round"/>
<path d="M11.6665 16.3334H16.3332" stroke="white" stroke-width="2" stroke-linecap="round" stroke-linejoin="round"/>
<path d="M14 14V18.6667" stroke="white" stroke-width="2" stroke-linecap="round" stroke-linejoin="round"/>
</g>
<defs>
<clipPath id="clip0_1_2078">
<rect width="28" height="28" fill="white"/>
</clipPath>
</defs>
</svg>
