<svg width="28" height="28" viewBox="0 0 28 28" fill="none" xmlns="http://www.w3.org/2000/svg">
<g clip-path="url(#clip0_1_2102)">
<path d="M12.8335 24.5H7.00016C6.69074 24.5 6.394 24.3771 6.17521 24.1583C5.95641 23.9395 5.8335 23.6428 5.8335 23.3333V4.66667C5.8335 4.35725 5.95641 4.0605 6.17521 3.84171C6.394 3.62292 6.69074 3.5 7.00016 3.5H21.0002C21.3096 3.5 21.6063 3.62292 21.8251 3.84171C22.0439 4.0605 22.1668 4.35725 22.1668 4.66667V11.6667" stroke="white" stroke-width="2" stroke-linecap="round" stroke-linejoin="round"/>
<path d="M20.7665 24.2865L18.2325 25.6141C18.1573 25.6533 18.0727 25.6707 17.9881 25.6646C17.9036 25.6584 17.8224 25.6289 17.7536 25.5793C17.6849 25.5297 17.6313 25.4619 17.5988 25.3836C17.5664 25.3053 17.5563 25.2195 17.5698 25.1358L18.054 22.323L16.0041 20.3315C15.9429 20.2723 15.8996 20.1972 15.8791 20.1146C15.8586 20.032 15.8617 19.9453 15.8881 19.8644C15.9145 19.7835 15.9631 19.7116 16.0284 19.657C16.0937 19.6025 16.173 19.5673 16.2573 19.5556L19.09 19.145L20.357 16.5865C20.3948 16.5103 20.4533 16.4462 20.5256 16.4013C20.5979 16.3565 20.6814 16.3328 20.7665 16.3328C20.8516 16.3328 20.935 16.3565 21.0073 16.4013C21.0797 16.4462 21.1381 16.5103 21.176 16.5865L22.443 19.145L25.2756 19.5556C25.3597 19.5677 25.4387 19.6031 25.5037 19.6577C25.5686 19.7124 25.617 19.7841 25.6434 19.8649C25.6697 19.9456 25.673 20.0321 25.6527 20.1145C25.6325 20.197 25.5895 20.2721 25.5288 20.3315L23.479 22.323L23.962 25.1346C23.9765 25.2185 23.9671 25.3047 23.9351 25.3835C23.903 25.4624 23.8495 25.5306 23.7806 25.5805C23.7118 25.6305 23.6302 25.6601 23.5454 25.666C23.4605 25.672 23.3756 25.654 23.3005 25.6141L20.7665 24.2865Z" stroke="white" stroke-width="2" stroke-linecap="round" stroke-linejoin="round"/>
</g>
<defs>
<clipPath id="clip0_1_2102">
<rect width="28" height="28" fill="white"/>
</clipPath>
</defs>
</svg>
