<svg width="18" height="18" viewBox="0 0 18 18" fill="none" xmlns="http://www.w3.org/2000/svg">
<circle cx="9" cy="8.99976" r="9" fill="#84E2F3"/>
<path d="M12.8567 6.7017C12.6861 6.70173 12.5224 6.76955 12.4018 6.89022L9.45102 9.841C9.32868 9.95842 9.16568 10.024 8.99612 10.024C8.82655 10.024 8.66355 9.95842 8.54121 9.841L5.59043 6.89022C5.46908 6.77301 5.30655 6.70816 5.13784 6.70963C4.96914 6.71109 4.80775 6.77876 4.68846 6.89806C4.56916 7.01736 4.50149 7.17874 4.50002 7.34744C4.49856 7.51615 4.56341 7.67868 4.68062 7.80003L7.6314 10.7508C7.99919 11.1018 8.48805 11.2976 8.99644 11.2976C9.50483 11.2976 9.99368 11.1018 10.3615 10.7508L13.3116 7.80003C13.4016 7.71005 13.4628 7.59541 13.4876 7.47062C13.5125 7.34582 13.4997 7.21647 13.451 7.09892C13.4023 6.98136 13.3199 6.88088 13.2141 6.81018C13.1083 6.73947 12.9839 6.70172 12.8567 6.7017Z" fill="#27292E"/>
</svg>
