<svg width="526" height="479" viewBox="0 0 526 479" fill="none" xmlns="http://www.w3.org/2000/svg">
<path d="M-14.6468 65.3911C-6.03351 54.5999 -7.79904 38.8696 -18.5902 30.2563C-29.3813 21.6431 -45.1117 23.4086 -53.7249 34.1998L-14.6468 65.3911ZM71.015 162.999L86.1463 182.9L71.015 162.999ZM465.675 184.866L444.445 171.665L465.675 184.866ZM-53.7249 34.1998C-70.6065 55.35 -85.7235 84.2486 -95.698 112.863C-105.427 140.774 -111.732 172.582 -106.679 198.551C-104.059 212.018 -97.9013 226.196 -85.1556 236.21C-72.1429 246.434 -55.952 249.435 -39.2229 247.626C-7.6446 244.212 33.4553 222.963 86.1463 182.9L55.8837 143.098C4.07678 182.489 -27.6158 196.079 -44.5978 197.916C-52.1488 198.732 -54.1801 196.961 -54.2655 196.894C-54.6181 196.617 -56.4352 194.985 -57.5993 189.001C-60.1157 176.069 -57.2307 154.413 -48.4842 129.321C-39.9832 104.933 -27.3389 81.2924 -14.6468 65.3911L-53.7249 34.1998ZM86.1463 182.9C198.339 97.5954 326.062 51.0238 405.941 50.8233C447.022 50.7202 465.579 62.4612 471.606 74.8841C478.183 88.4388 477.907 117.853 444.445 171.665L486.905 198.068C521.913 141.77 535.267 91.5528 516.592 53.059C497.367 13.4333 451.791 0.708021 405.816 0.823441C311.583 1.06001 173.507 53.665 55.8837 143.098L86.1463 182.9ZM444.445 171.665C372.222 287.81 295.09 375.853 227.752 437.328C159.703 499.453 103.469 532.806 73.486 542.124L88.3241 589.871C128.706 577.322 191.432 538.189 261.464 474.255C332.207 409.671 412.277 318.082 486.905 198.068L444.445 171.665Z" fill="white"/>
</svg>
