<svg width="36" height="36" viewBox="0 0 36 36" fill="none" xmlns="http://www.w3.org/2000/svg">
<circle cx="18" cy="18" r="18" fill="#4CAF50"/>
<path d="M24.3898 11.5868C22.6798 9.93385 20.4299 9.00011 18.0336 9.00011C11.1562 9.00011 6.83778 16.4513 10.272 22.3784L9 26.9999L13.7512 25.7609C15.8212 26.8791 17.5169 26.7801 18.0381 26.8461C26.0128 26.8461 29.9825 17.1983 24.3786 11.6161L24.3898 11.5868Z" fill="white"/>
<path d="M18.0502 25.3131L18.0457 25.3124H18.0337C15.6472 25.3124 14.1225 24.1822 13.9725 24.1169L11.16 24.8482L11.9138 22.1144L11.7345 21.8332C10.992 20.6512 10.5975 19.29 10.5975 17.8882C10.5975 11.2936 18.6562 7.99586 23.3196 12.6571C27.9718 17.2695 24.7056 25.3131 18.0502 25.3131Z" fill="#4CAF50"/>
<path d="M22.1301 19.7302L22.1234 19.7865C21.8976 19.674 20.7981 19.1362 20.5934 19.062C20.1336 18.8918 20.2634 19.035 19.3807 20.046C19.2494 20.1922 19.1189 20.2035 18.8962 20.1022C18.6712 19.9897 17.9489 19.7535 17.0939 18.9885C16.4279 18.3923 15.981 17.661 15.849 17.436C15.6292 17.0565 16.0889 17.0025 16.5074 16.2105C16.5824 16.053 16.5442 15.9293 16.4887 15.8175C16.4324 15.705 15.9847 14.6026 15.7972 14.1631C15.6172 13.7251 15.432 13.7806 15.2932 13.7806C14.8612 13.7431 14.5455 13.7491 14.2672 14.0386C13.0567 15.369 13.362 16.7415 14.3977 18.201C16.4332 20.865 17.5177 21.3555 19.5007 22.0365C20.0362 22.2067 20.5244 22.1827 20.9106 22.1272C21.3411 22.059 22.2359 21.5865 22.4226 21.0577C22.6139 20.529 22.6139 20.0902 22.5576 19.989C22.5021 19.8877 22.3551 19.8315 22.1301 19.7302Z" fill="white"/>
</svg>
